<?xml version="1.0" ?><!DOCTYPE svg  PUBLIC '-//W3C//DTD SVG 1.1//EN'  'http://www.w3.org/Graphics/SVG/1.1/DTD/svg11.dtd'><svg height="512px" style="enable-background:new 0 0 512 512;" version="1.1" viewBox="0 0 512 512" width="512px" xml:space="preserve" xmlns="http://www.w3.org/2000/svg" xmlns:xlink="http://www.w3.org/1999/xlink"><g id="balloons__x2C__celebrations__x2C__balloon__x2C_"><g><g><path d="M342.875,348.529c-80.263,0-145.562-75.54-145.562-168.391     c0-92.862,65.299-168.411,145.562-168.411c38.738,0,75.289,17.655,102.919,49.714c27.499,31.907,42.644,74.061,42.644,118.697     c0,44.635-15.145,86.786-42.644,118.687C418.164,330.878,381.614,348.529,342.875,348.529z M342.875,20.728     c-75.301,0-136.562,71.512-136.562,159.411c0,87.889,61.261,159.391,136.562,159.391s136.563-71.502,136.563-159.391     C479.438,92.239,418.176,20.728,342.875,20.728z" style="fill:#221F20;"/></g><g><path d="M378.006,385.414H307.16c-1.607,0-3.093-0.857-3.897-2.25c-0.804-1.392-0.804-3.107,0-4.5     l21.667-37.481c0.907-1.559,2.663-2.43,4.444-2.203c4.423,0.55,8.833,0.55,13.501,0.55c4.444,0,9.04,0,12.838-0.539     c1.811-0.261,3.602,0.609,4.522,2.191l4.095,7.038l17.573,30.444c0.804,1.393,0.804,3.108,0,4.5     C381.099,384.557,379.613,385.414,378.006,385.414z M314.953,376.414h55.26l-16.286-28.178     c-3.578,0.293-7.363,0.293-11.052,0.293c-3.786,0-7.675,0-11.624-0.315l-2.636,4.531L314.953,376.414z" style="fill:#221F20;"/></g><g><path d="M457.017,184.639c-2.485,0-4.5-2.015-4.5-4.5c0-71.109-49.185-128.96-109.642-128.96     c-2.485,0-4.5-2.015-4.5-4.5s2.015-4.5,4.5-4.5c31.899,0,61.802,14.435,84.2,40.644c22.21,25.99,34.441,60.551,34.441,97.316     C461.517,182.624,459.502,184.639,457.017,184.639z" style="fill:#221F20;"/></g><g><path d="M169.022,348.529c-38.982,0-75.51-17.577-102.854-49.494     c-27.164-31.706-42.124-73.931-42.124-118.896c0-44.967,14.959-87.195,42.123-118.906     c27.346-31.924,63.874-49.505,102.855-49.505c32.677,0,64.723,12.68,90.234,35.704c0.948,0.856,1.487,2.074,1.485,3.351     c-0.003,1.277-0.548,2.492-1.5,3.344c-33.637,30.098-52.928,76.028-52.928,126.013c0,49.963,19.292,95.895,52.929,126.015     c0.951,0.852,1.496,2.067,1.499,3.344c0.002,1.276-0.538,2.494-1.485,3.35C233.76,335.856,201.714,348.529,169.022,348.529z      M169.022,20.728c-74.979,0-135.978,71.512-135.978,159.411c0,87.889,61,159.391,135.978,159.391     c28.897,0,57.292-10.663,80.485-30.127c-33.234-31.813-52.194-78.61-52.194-129.264c0-50.672,18.961-97.47,52.192-129.264     C226.301,31.398,197.905,20.728,169.022,20.728z" style="fill:#221F20;"/></g><g><path d="M204.736,385.414h-70.844c-1.607,0-3.093-0.857-3.897-2.25c-0.804-1.392-0.804-3.107,0-4.5     l21.667-37.481c0.906-1.559,2.652-2.429,4.445-2.203c4.422,0.55,8.358,0.55,12.916,0.55c4.679,0,9.098,0,13.5-0.55     c1.793-0.217,3.541,0.645,4.447,2.203l4.093,7.037l17.572,30.445c0.804,1.392,0.803,3.107,0,4.499     C207.83,384.557,206.344,385.414,204.736,385.414z M141.686,376.414h55.258l-16.297-28.2c-3.939,0.315-7.833,0.315-11.625,0.315     c-3.857,0-7.297,0-11.042-0.31l-2.633,4.525L141.686,376.414z" style="fill:#221F20;"/></g><g><path d="M192.44,500.725c-0.173,0-0.348-0.01-0.525-0.03c-2.469-0.287-4.237-2.521-3.95-4.989     c0.786-6.767,2.41-12.203,3.843-16.999c3.845-12.87,5.436-18.197-16.874-31.273c-13.297-7.892-20.164-16.534-20.429-25.7     c-0.339-11.709,10.374-19.073,10.83-19.381c2.059-1.39,4.857-0.848,6.247,1.214c1.387,2.056,0.849,4.844-1.199,6.237     c-0.161,0.111-7.107,5.019-6.881,11.715c0.195,5.785,5.729,12.065,16.003,18.163c27.01,15.832,25.548,26.123,20.924,41.602     c-1.327,4.442-2.831,9.478-3.527,15.462C196.638,499.036,194.693,500.725,192.44,500.725z" style="fill:#221F20;"/></g><g><path d="M359.861,500.725c-0.174,0-0.349-0.01-0.525-0.03c-2.469-0.286-4.237-2.521-3.95-4.989     c0.786-6.768,2.41-12.204,3.843-17c3.845-12.869,5.436-18.196-16.875-31.271c-13.124-7.924-19.896-16.571-20.176-25.732     c-0.357-11.66,10.093-19.015,10.537-19.322c2.045-1.412,4.847-0.899,6.261,1.146c1.408,2.04,0.901,4.834-1.131,6.25     c-0.174,0.125-6.908,5.009-6.67,11.701c0.208,5.813,5.664,12.115,15.78,18.223c26.982,15.813,25.521,26.104,20.896,41.583     c-1.327,4.442-2.831,9.478-3.526,15.463C364.06,499.036,362.114,500.725,359.861,500.725z" style="fill:#221F20;"/></g></g></g><g id="Layer_1"/></svg>