<?xml version="1.0" ?><!DOCTYPE svg  PUBLIC '-//W3C//DTD SVG 1.1//EN'  'http://www.w3.org/Graphics/SVG/1.1/DTD/svg11.dtd'><svg height="512px" style="enable-background:new 0 0 512 512;" version="1.1" viewBox="0 0 512 512" width="512px" xml:space="preserve" xmlns="http://www.w3.org/2000/svg" xmlns:xlink="http://www.w3.org/1999/xlink"><g id="_x31_58_x2C__Twitter_x2C__Chat_x2C__Chatting"><g id="XMLID_5061_"><g id="XMLID_5062_"><path d="M245.48,408.1c-2.08,0-4.08-0.63-5.77-1.819c-3.23-2.28-4.82-6.261-4.04-10.141l10.24-51.189h-5.7c-5.51,0-10-4.49-10-10     c0-5.521,4.49-10,10-10h17.899c3.011,0,5.82,1.33,7.73,3.659c1.9,2.32,2.66,5.351,2.07,8.301l-8.2,40.989l84.68-50.81     c1.67-1.37,3.71-2.16,5.88-2.26c53.69-2.511,95.74-46.62,95.73-100.41c0.01-39.25-23.08-75.17-58.83-91.5     c-5.021-2.29-7.24-8.24-4.95-13.25c1.63-3.55,5.2-5.85,9.11-5.85c1.43,0,2.83,0.31,4.149,0.91     c10.32,4.71,19.931,10.86,28.57,18.29c8.58,7.39,16.08,15.94,22.29,25.4c12.86,19.62,19.65,42.44,19.66,66     c-0.01,30.71-11.561,59.96-32.53,82.36c-20.87,22.289-49.09,35.739-79.46,37.869l-103.39,62.03     C249.07,407.609,247.29,408.1,245.48,408.1z M190.21,344.95c-5.51,0-10-4.49-10-10c0-5.521,4.49-10,10-10c5.52,0,10,4.479,10,10     C200.21,340.46,195.73,344.95,190.21,344.95z M140.47,341.859c-0.79,0-1.58-0.1-2.35-0.279c-13.04-3.15-25.39-8.44-36.7-15.721     c-11.12-7.14-20.94-16.01-29.19-26.359c-8.32-10.44-14.8-22.09-19.27-34.62C48.35,251.92,46,238.31,46,224.42     c0-16.27,3.19-32.06,9.47-46.91c6.07-14.36,14.76-27.24,25.83-38.31c11.07-11.07,23.96-19.76,38.31-25.83     c14.86-6.29,30.64-9.47,46.92-9.47h178.94c5.521,0,10,4.48,10,10c0,5.51-4.479,10-10,10H166.53c-26.84,0-52.09,10.46-71.09,29.44     C76.46,172.34,66,197.58,66,224.42c-0.02,46.59,31.57,86.78,76.82,97.72c2.59,0.62,4.79,2.22,6.18,4.5     c1.39,2.28,1.81,4.97,1.19,7.561C149.1,338.71,145.1,341.859,140.47,341.859z"/></g></g></g><g id="Layer_1"/></svg>